<svg preserveAspectRatio="none" width="100%" height="100%" overflow="visible" style="display: block;" viewBox="0 0 125 44" fill="none" xmlns="http://www.w3.org/2000/svg">
<g id="Group 1">
<g id="Creator Support">
<path d="M55.7219 21.5884C51.223 21.5884 48.0224 18.1325 48.0224 13.3388C48.0224 8.61199 50.9768 5 55.6995 5C59.6388 5 61.9665 7.34111 62.3023 10.3734H59.0792C58.7882 8.76807 57.5796 7.72014 55.6995 7.72014C52.745 7.72014 51.335 10.1727 51.335 13.3388C51.335 16.594 53.036 18.9352 55.7219 18.9352C57.6244 18.9352 58.9673 17.798 59.1687 16.1258H62.347C62.2575 17.5305 61.6532 18.8906 60.5788 19.8939C59.4821 20.9195 57.9377 21.5884 55.7219 21.5884Z" fill="var(--fill-0, #191917)"/>
<path d="M66.4494 9.81599V11.6443H66.5166C67.2104 10.3511 67.9938 9.68221 69.3368 9.68221C69.6725 9.68221 69.8739 9.70451 70.053 9.77139V12.4246H69.9858C67.9938 12.224 66.5614 13.2719 66.5614 15.6799V21.254H63.5174V9.81599H66.4494Z" fill="var(--fill-0, #191917)"/>
<path d="M75.9829 21.5884C72.1779 21.5884 70.0292 18.9351 70.0292 15.5238C70.0292 12.1348 72.3346 9.50384 75.6919 9.50384C79.385 9.50384 81.3546 12.3132 81.3546 16.3934H73.0284C73.2522 18.1548 74.2371 19.2473 75.9605 19.2473C77.1468 19.2473 77.8406 18.7122 78.1763 17.8426H81.1756C80.7503 19.8716 78.9373 21.5884 75.9829 21.5884ZM75.7367 11.8449C74.1252 11.8449 73.3418 12.8037 73.0732 14.2975H78.1763C78.0868 12.8483 77.1244 11.8449 75.7367 11.8449Z" fill="var(--fill-0, #191917)"/>
<path d="M89.5453 21.254C89.3662 21.031 89.2543 20.4959 89.1872 19.9831H89.1424C88.5605 20.8526 87.7323 21.5215 85.7627 21.5215C83.4126 21.5215 81.7563 20.2952 81.7563 18.021C81.7563 15.5015 83.8154 14.6989 86.367 14.3421C88.2695 14.0746 89.1424 13.9185 89.1424 13.0489C89.1424 12.224 88.4933 11.6889 87.2175 11.6889C85.7851 11.6889 85.0912 12.2017 85.0017 13.2942H82.2934C82.383 11.2875 83.8826 9.52614 87.2399 9.52614C90.6868 9.52614 92.0745 11.0646 92.0745 13.7401V19.5594C92.0745 20.429 92.2088 20.9418 92.4774 21.1425V21.254H89.5453ZM86.5013 19.4034C88.2471 19.4034 89.2096 18.3332 89.2096 17.2183V15.5015C88.6724 15.8137 87.8442 15.992 87.0832 16.1704C85.4941 16.5272 84.7107 16.8839 84.7107 17.9541C84.7107 19.0243 85.427 19.4034 86.5013 19.4034Z" fill="var(--fill-0, #191917)"/>
<path d="M92.672 11.8226V9.81599H94.2611V6.24859H97.238V9.81599H99.2076V11.8226H97.238V17.8872C97.238 18.7345 97.708 19.0243 98.3795 19.0243C98.76 19.0243 99.2747 19.002 99.2747 19.002V21.2317C99.2747 21.2317 98.5809 21.2763 97.3723 21.2763C95.895 21.2763 94.2611 20.6966 94.2611 18.5338V11.8226H92.672Z" fill="var(--fill-0, #191917)"/>
<path d="M105.657 21.5884C102.098 21.5884 99.6586 18.9574 99.6586 15.5461C99.6586 12.1348 102.098 9.50384 105.657 9.50384C109.216 9.50384 111.655 12.1348 111.655 15.5461C111.655 18.9574 109.216 21.5884 105.657 21.5884ZM105.657 19.2696C107.515 19.2696 108.567 17.7757 108.567 15.5461C108.567 13.3165 107.515 11.8004 105.657 11.8004C103.777 11.8004 102.747 13.3165 102.747 15.5461C102.747 17.7757 103.777 19.2696 105.657 19.2696Z" fill="var(--fill-0, #191917)"/>
<path d="M115.555 9.81599V11.6443H115.622C116.316 10.3511 117.099 9.68221 118.442 9.68221C118.778 9.68221 118.979 9.70451 119.158 9.77139V12.4246H119.091C117.099 12.224 115.667 13.2719 115.667 15.6799V21.254H112.623V9.81599H115.555Z" fill="var(--fill-0, #191917)"/>
<path d="M54.9161 40.611C50.574 40.611 48.1119 38.6935 48 35.3268H51.1783C51.4021 37.2442 52.4988 38.0023 54.7818 38.0023C56.4381 38.0023 57.893 37.4226 57.893 35.9511C57.893 34.3903 56.371 34.0782 53.9313 33.5208C51.0664 32.8742 48.4476 32.1161 48.4476 28.794C48.4476 25.6502 51.0216 24.0226 54.5804 24.0226C58.1839 24.0226 60.5117 25.784 60.7579 28.9946H57.6467C57.4677 27.3893 56.2143 26.5866 54.558 26.5866C52.8122 26.5866 51.6707 27.3224 51.6707 28.4595C51.6707 29.7527 52.7898 30.1317 55.1623 30.6446C58.4525 31.358 61.1384 32.1384 61.1384 35.572C61.1384 38.805 58.5197 40.611 54.9161 40.611Z" fill="var(--fill-0, #191917)"/>
<path d="M72.5668 40.2542H69.6347V38.9165H69.5676C68.7842 39.9644 67.8889 40.5664 66.2774 40.5664C63.7258 40.5664 62.2933 38.9388 62.2933 36.4416V28.8163H65.3149V35.9288C65.3149 37.2665 65.9193 38.0023 67.2174 38.0023C68.6499 38.0023 69.5228 36.9321 69.5228 35.4159V28.8163H72.5668V40.2542Z" fill="var(--fill-0, #191917)"/>
<path d="M74.0881 44V28.8163H77.0201V30.2432H77.0873C77.8259 29.2399 78.9003 28.5041 80.467 28.5041C83.511 28.5041 85.4583 30.979 85.4583 34.5464C85.4583 38.2476 83.4438 40.5887 80.4894 40.5887C78.8779 40.5887 77.8259 39.9421 77.1768 38.9611H77.1321V44H74.0881ZM79.8403 38.0692C81.3847 38.0692 82.3695 36.7983 82.3695 34.6356C82.3695 32.4728 81.6085 30.9567 79.7284 30.9567C77.8259 30.9567 77.0649 32.5843 77.0649 34.6356C77.0649 36.7091 78.0273 38.0692 79.8403 38.0692Z" fill="var(--fill-0, #191917)"/>
<path d="M86.4272 44V28.8163H89.3592V30.2432H89.4264C90.165 29.2399 91.2393 28.5041 92.8061 28.5041C95.8501 28.5041 97.7973 30.979 97.7973 34.5464C97.7973 38.2476 95.7829 40.5887 92.8285 40.5887C91.217 40.5887 90.165 39.9421 89.5159 38.9611H89.4711V44H86.4272ZM92.1794 38.0692C93.7238 38.0692 94.7086 36.7983 94.7086 34.6356C94.7086 32.4728 93.9476 30.9567 92.0675 30.9567C90.165 30.9567 89.404 32.5843 89.404 34.6356C89.404 36.7091 90.3664 38.0692 92.1794 38.0692Z" fill="var(--fill-0, #191917)"/>
<path d="M104.205 40.5887C100.646 40.5887 98.2067 37.9577 98.2067 34.5464C98.2067 31.1351 100.646 28.5041 104.205 28.5041C107.764 28.5041 110.204 31.1351 110.204 34.5464C110.204 37.9577 107.764 40.5887 104.205 40.5887ZM104.205 38.2699C106.063 38.2699 107.115 36.776 107.115 34.5464C107.115 32.3168 106.063 30.8006 104.205 30.8006C102.325 30.8006 101.295 32.3168 101.295 34.5464C101.295 36.776 102.325 38.2699 104.205 38.2699Z" fill="var(--fill-0, #191917)"/>
<path d="M114.103 28.8163V30.6446H114.17C114.864 29.3514 115.647 28.6825 116.99 28.6825C117.326 28.6825 117.527 28.7048 117.707 28.7717V31.4249H117.639C115.647 31.2243 114.215 32.2722 114.215 34.6802V40.2542H111.171V28.8163H114.103Z" fill="var(--fill-0, #191917)"/>
<path d="M118.397 30.8229V28.8163H119.986V25.2489H122.963V28.8163H124.933V30.8229H122.963V36.8875C122.963 37.7348 123.433 38.0246 124.105 38.0246C124.485 38.0246 125 38.0023 125 38.0023V40.2319C125 40.2319 124.306 40.2765 123.098 40.2765C121.62 40.2765 119.986 39.6968 119.986 37.5341V30.8229H118.397Z" fill="var(--fill-0, #191917)"/>
</g>
<path id="Rectangle 740" d="M0 18C0 8.05887 8.05887 0 18 0H18.5C28.165 0 36 7.83502 36 17.5V17.5C36 27.165 28.165 35 18.5 35H0V18Z" fill="var(--fill-0, #FBF6A6)" fill-opacity="0.8"/>
<path id="Rectangle 739" d="M8 23C8 13.0589 16.0589 5 26 5V5C35.9411 5 44 13.0589 44 23V41H26C16.0589 41 8 32.9411 8 23V23Z" fill="var(--fill-0, #F6E921)"/>
</g>
</svg>
